<svg width="122" height="42" viewBox="0 0 122 42" fill="none" xmlns="http://www.w3.org/2000/svg">
<path d="M108.599 27.2443C108.913 27.0409 109.194 26.7896 109.431 26.4993C110.241 25.5717 110.646 24.0551 110.647 21.9496C110.647 20.0424 110.233 18.6209 109.406 17.6851C109.021 17.2331 108.539 16.8726 107.996 16.6298C107.454 16.387 106.864 16.268 106.27 16.2814C105.163 16.2814 104.235 16.7305 103.485 17.6286C102.735 18.5267 102.359 20.0357 102.359 22.1556C102.359 24.136 102.745 25.5885 103.516 26.5132C103.735 26.7942 103.995 27.0406 104.288 27.244H93.8392C93.2358 25.451 92.9231 23.5731 92.9131 21.6814C92.9131 17.6427 93.9048 14.6247 95.8715 12.4825C97.8322 10.3358 100.473 9.33489 103.406 9.33489C104.952 9.33489 106.174 9.5134 107.375 10.0032C108.617 10.5184 109.736 11.29 110.659 12.2674V0.535889H120.693V27.2443H108.599Z" fill="#278B99"/>
<path d="M80.2529 24.0999V22.6082C80.2529 22.6082 77.4043 22.4968 76.0006 22.8873C72.7705 23.8195 72.2046 25.7923 72.2304 27.2449H62.5068C62.5755 25.6199 62.9387 24.3857 63.848 23.2062C64.8397 21.9108 66.9652 20.4324 69.8763 19.6191C71.5836 19.137 74.6977 18.4855 76.1137 18.4565C77.2045 18.432 79.6933 18.3343 79.6933 18.3343C79.6933 18.3343 79.5905 15.343 76.0416 15.343C73.7833 15.343 72.6956 16.4095 72.2745 17.6782H62.9539C62.9539 17.625 63.082 9.02881 75.7825 9.02881C87.2196 9.02881 89.3633 15.4553 89.3633 18.272V27.245H79.4902C79.5496 27.1458 80.2531 26.3143 80.2531 24.1004" fill="#278B99"/>
<path d="M48.1552 16.5564C44.8651 16.5564 43.0592 18.9518 43.0592 22.4184C43.0592 24.4431 43.61 26.2939 44.91 27.5189L35.0337 27.522C34.5105 26.126 34.2646 24.4022 34.2646 22.2582C34.2646 19.7299 34.6761 17.6249 35.4991 15.9431C35.3494 16.2466 38.0882 8.99316 47.8775 8.99316C55.4499 8.99316 60.8084 13.9642 60.8084 19.3348H51.7016C51.1947 17.661 49.9999 16.5564 48.1552 16.5564Z" fill="#278B99"/>
<path d="M26.017 19.3546C25.0415 20.7995 25.003 21.5601 25.003 25.5065V27.5191H14.8174V8.99316H23.6119V14.4051C24.9851 9.60953 29.3661 8.99316 31.9471 8.99316V17.1697C29.5929 17.2918 27.4645 17.1758 26.017 19.3546Z" fill="#278B99"/>
<path d="M0.30957 8.99316H10.1889V27.5129L0.30957 27.5189V8.99316Z" fill="#278B99"/>
<path d="M0.307617 0.500244L10.1869 0.503317V7.1389H0.307617V0.500244Z" fill="#278B99"/>
<path d="M77.9145 35.2114C77.7509 35.2068 77.5888 35.2424 77.4422 35.315C77.2957 35.3876 77.1691 35.495 77.0736 35.6279C76.9205 35.8592 76.832 36.1274 76.8174 36.4045H78.9946C78.9519 35.9795 78.8359 35.6723 78.6483 35.4891C78.5512 35.3956 78.436 35.3227 78.3099 35.275C78.1837 35.2272 78.0492 35.2056 77.9145 35.2114Z" fill="#E01914"/>
<path d="M121.41 41.5002H0.15332V30.354H121.41V41.5002ZM77.8235 33.9029C76.8126 33.9029 76.0084 34.1842 75.4329 34.7391C74.8574 35.294 74.5678 36.0296 74.5678 36.9266C74.5549 37.5064 74.7048 38.0783 75.0004 38.5772C75.2576 39.0163 75.6349 39.3727 76.088 39.6044C76.5307 39.8176 77.1373 39.9251 77.89 39.9251C78.7657 39.9251 79.4463 39.7986 79.9127 39.5489C80.4241 39.2563 80.8421 38.8248 81.1184 38.3045L78.9419 38.1026C78.8367 38.2459 78.7066 38.3692 78.5579 38.4666C78.3693 38.573 78.1565 38.6293 77.94 38.63C77.7813 38.6349 77.6236 38.6036 77.4788 38.5387C77.3339 38.4738 77.2057 38.3768 77.1038 38.2552C76.9307 38.0259 76.8307 37.7498 76.8168 37.4629H81.2426V37.2145C81.2426 36.4626 81.1169 35.8398 80.8691 35.3634C80.6277 34.8964 80.2459 34.517 79.7774 34.2786C79.3014 34.029 78.6445 33.9029 77.8235 33.9029ZM70.5278 33.9029C69.9638 33.8866 69.4018 33.9775 68.8717 34.1706C68.5805 34.2947 68.3126 34.4674 68.0794 34.6815C67.8294 34.9004 67.623 35.1646 67.471 35.46C67.2553 35.9229 67.151 36.4298 67.1662 36.9403C67.1479 37.4086 67.2333 37.8751 67.4162 38.3067C67.5842 38.6489 67.8193 38.9538 68.1075 39.2034C68.4109 39.4646 68.7696 39.6537 69.1566 39.7565C69.6559 39.8803 70.1693 39.9371 70.6836 39.9255C71.2179 39.9432 71.7503 39.853 72.2491 39.6604C72.6425 39.4971 72.9904 39.2408 73.263 38.9135C73.5314 38.5799 73.7252 38.1926 73.8314 37.7779L71.7332 37.539C71.66 37.8074 71.5049 38.0465 71.2896 38.2228C71.0778 38.3764 70.8206 38.4547 70.5591 38.4452C70.3983 38.4494 70.2385 38.4186 70.0908 38.3549C69.9431 38.2912 69.811 38.1963 69.7036 38.0765C69.4794 37.8318 69.3656 37.4695 69.3656 36.9999C69.3656 36.4715 69.4797 36.0715 69.7048 35.8106C69.9047 35.6008 70.1705 35.4659 70.4578 35.4282C70.7452 35.3906 71.0367 35.4525 71.284 35.6037C71.4627 35.7426 71.5879 35.9391 71.6382 36.1598L73.7159 35.8833C73.5511 35.2863 73.1848 34.7647 72.6792 34.4071C72.1835 34.0718 71.4594 33.9029 70.5278 33.9029ZM55.7793 35.217C56.06 35.217 56.2586 35.272 56.3697 35.3805C56.498 35.5406 56.5581 35.7448 56.5372 35.9489C56.2817 36.0514 56.0209 36.1399 55.7558 36.2139C55.5028 36.282 54.9453 36.4027 54.1436 36.5626C53.4586 36.6986 52.9805 36.9102 52.7224 37.1916C52.4612 37.4897 52.3238 37.8762 52.3383 38.2722C52.3355 38.4956 52.3819 38.7168 52.4742 38.9202C52.5665 39.1236 52.7025 39.3042 52.8725 39.449C53.2274 39.7697 53.7394 39.9253 54.438 39.9253C54.9026 39.9344 55.3647 39.8537 55.7988 39.6878C56.1213 39.5441 56.4142 39.3415 56.6625 39.0905C56.6787 39.2144 56.7039 39.337 56.7381 39.4572C56.7834 39.5745 56.838 39.6879 56.9016 39.7964H58.9724C58.8775 39.6088 58.8025 39.4118 58.7485 39.2086C58.7089 38.9982 58.6918 38.7842 58.6977 38.5701V36.0253C58.6919 35.7334 58.6371 35.4447 58.5356 35.1711C58.4488 34.9056 58.2954 34.6669 58.0901 34.4776C57.8037 34.2351 57.4566 34.0751 57.0863 34.0149C56.5587 33.9311 56.0249 33.8936 55.4908 33.9029C55.1053 33.9013 54.7203 33.9326 54.3401 33.9963C54.0493 34.0374 53.7669 34.125 53.5039 34.2557C53.2491 34.3887 53.0276 34.5774 52.8557 34.8077C52.6849 35.0725 52.5678 35.3684 52.5112 35.6784L54.6236 35.9C54.6777 35.6976 54.7969 35.5186 54.9628 35.3906C55.2137 35.2578 55.4966 35.1975 55.7798 35.2164L55.7793 35.217ZM60.0224 34.0341V39.7952L62.2292 39.7966L62.2305 37.0281C62.2305 36.5058 62.3146 36.1392 62.4805 35.9374C62.5578 35.8395 62.6569 35.7611 62.77 35.7084C62.883 35.6557 63.0068 35.6302 63.1314 35.634C63.2359 35.6279 63.3405 35.6448 63.4378 35.6835C63.535 35.7221 63.6227 35.7816 63.6945 35.8578C63.8285 36.0041 63.8964 36.2623 63.8964 36.6259V39.7961L66.1154 39.7947V36.1337C66.1154 35.3789 65.9412 34.8116 65.5977 34.4475C65.2538 34.0857 64.7705 33.9024 64.1614 33.9024C63.7641 33.8923 63.3701 33.9771 63.0121 34.1496C62.648 34.3572 62.3302 34.6371 62.0783 34.9721V34.035L60.0224 34.0341ZM47.5087 34.0341V39.7952H49.7263L49.7277 37.8645C49.7277 36.9427 49.8423 36.3064 50.0683 35.9736C50.1401 35.8608 50.2401 35.7686 50.3583 35.706C50.4765 35.6434 50.6089 35.6126 50.7426 35.6166C50.9567 35.6323 51.1662 35.6872 51.3605 35.7787L52.0443 34.2064C51.7171 34.021 51.3503 33.9164 50.9745 33.9016C50.6956 33.8939 50.4214 33.9745 50.191 34.1321C49.924 34.3628 49.7137 34.6519 49.5765 34.977V34.0342L47.5087 34.0341ZM40.6128 31.8411V39.7961H43.079L43.0804 36.5458H46.1645V34.9405H43.0804V33.5521H46.6892V31.8411H40.6128Z" fill="#E01914"/>
<path d="M54.7352 37.701C54.6782 37.7526 54.6325 37.8155 54.601 37.8856C54.5695 37.9557 54.5528 38.0316 54.5521 38.1084C54.5493 38.1884 54.5641 38.268 54.5955 38.3415C54.6268 38.4151 54.674 38.4809 54.7337 38.5342C54.8846 38.6544 55.0753 38.7132 55.2677 38.699C55.5082 38.7003 55.7449 38.6387 55.9543 38.5203C56.1438 38.4221 56.3003 38.2704 56.4044 38.084C56.501 37.8744 56.5464 37.6448 56.5371 37.4142V37.0618C56.2319 37.1693 55.9162 37.2662 55.588 37.3501C55.1395 37.4691 54.8553 37.5861 54.7352 37.701Z" fill="#E01914"/>
</svg>
